<svg width="64" height="64" viewBox="0 0 64 64" fill="none" xmlns="http://www.w3.org/2000/svg">
<g id="bi:arrow-down">
<g id="Group">
<path id="Vector" fill-rule="evenodd" clip-rule="evenodd" d="M32.0001 4C32.5305 4 33.0392 4.21071 33.4143 4.58579C33.7894 4.96086 34.0001 5.46957 34.0001 6V53.172L46.5841 40.584C46.9596 40.2085 47.469 39.9975 48.0001 39.9975C48.5312 39.9975 49.0405 40.2085 49.4161 40.584C49.7916 40.9596 50.0026 41.4689 50.0026 42C50.0026 42.5311 49.7916 43.0405 49.4161 43.416L33.4161 59.416C33.2303 59.6023 33.0096 59.75 32.7666 59.8509C32.5236 59.9517 32.2632 60.0036 32.0001 60.0036C31.737 60.0036 31.4765 59.9517 31.2336 59.8509C30.9906 59.75 30.7699 59.6023 30.5841 59.416L14.5841 43.416C14.2085 43.0405 13.9976 42.5311 13.9976 42C13.9976 41.4689 14.2085 40.9596 14.5841 40.584C14.9596 40.2085 15.469 39.9975 16.0001 39.9975C16.5312 39.9975 17.0405 40.2085 17.4161 40.584L30.0001 53.172V6C30.0001 5.46957 30.2108 4.96086 30.5859 4.58579C30.9609 4.21071 31.4697 4 32.0001 4V4Z" fill="#585656" fill-opacity="0.6"/>
</g>
</g>
</svg>
