<svg width="48" height="42" viewBox="0 0 48 42" fill="none" xmlns="http://www.w3.org/2000/svg">
<g id="carbon:auto-scroll" filter="url(#filter0_b_78_101)">
<rect width="48" height="42" fill="#F2F2F2" fill-opacity="0.6"/>
<path id="Vector" d="M17.8398 21C17.8398 22.1867 18.1917 23.3467 18.851 24.3334C19.5103 25.3201 20.4474 26.0892 21.5437 26.5433C22.6401 26.9974 23.8465 27.1162 25.0104 26.8847C26.1743 26.6532 27.2434 26.0818 28.0825 25.2426C28.9216 24.4035 29.493 23.3344 29.7246 22.1705C29.9561 21.0067 29.8372 19.8003 29.3831 18.7039C28.929 17.6075 28.16 16.6705 27.1733 16.0112C26.1866 15.3519 25.0265 15 23.8398 15C22.2485 15 20.7224 15.6321 19.5972 16.7574C18.472 17.8826 17.8398 19.4087 17.8398 21V21ZM26.8398 21C26.8398 21.5933 26.6639 22.1734 26.3343 22.6667C26.0046 23.1601 25.5361 23.5446 24.9879 23.7716C24.4397 23.9987 23.8365 24.0581 23.2546 23.9424C22.6726 23.8266 22.1381 23.5409 21.7185 23.1213C21.299 22.7018 21.0132 22.1672 20.8975 21.5853C20.7817 21.0033 20.8411 20.4001 21.0682 19.852C21.2953 19.3038 21.6798 18.8352 22.1731 18.5056C22.6665 18.1759 23.2465 18 23.8398 18C24.6355 18 25.3986 18.3161 25.9612 18.8787C26.5238 19.4413 26.8398 20.2044 26.8398 21Z" fill="#545454" fill-opacity="0.7"/>
<path id="Vector_2" d="M23.8398 37.755L15.4398 29.37L13.3398 31.5L23.8398 42L34.3398 31.5L32.2248 29.385L23.8398 37.755Z" fill="#545454" fill-opacity="0.7"/>
<path id="Vector_3" d="M23.8398 4.245L32.2098 12.6L34.3398 10.5L23.8398 0L13.3398 10.5L15.4548 12.615L23.8398 4.245Z" fill="#545454" fill-opacity="0.7"/>
</g>
<defs>
<filter id="filter0_b_78_101" x="-50" y="-50" width="148" height="142" filterUnits="userSpaceOnUse" color-interpolation-filters="sRGB">
<feFlood flood-opacity="0" result="BackgroundImageFix"/>
<feGaussianBlur in="BackgroundImageFix" stdDeviation="25"/>
<feComposite in2="SourceAlpha" operator="in" result="effect1_backgroundBlur_78_101"/>
<feBlend mode="normal" in="SourceGraphic" in2="effect1_backgroundBlur_78_101" result="shape"/>
</filter>
</defs>
</svg>
