<svg width="114" height="74" viewBox="0 0 114 74" fill="none" xmlns="http://www.w3.org/2000/svg">
<g id="Frame 1">
<circle id="Ellipse 6" cx="36.8083" cy="37.2604" r="36.2077" stroke="#585656" stroke-opacity="0.8"/>
<g id="Group">
<path id="Vector" fill-rule="evenodd" clip-rule="evenodd" d="M34.0146 37.0526C34.0146 36.3728 34.3122 35.7208 34.8419 35.24C35.3715 34.7593 36.0899 34.4893 36.839 34.4893L103.453 34.4893L85.677 18.3607C85.1467 17.8794 84.8487 17.2266 84.8487 16.5459C84.8487 15.8652 85.1467 15.2124 85.677 14.7311C86.2073 14.2497 86.9266 13.9793 87.6766 13.9793C88.4266 13.9793 89.1459 14.2497 89.6762 14.7311L112.271 35.2378C112.534 35.4759 112.742 35.7587 112.885 36.0702C113.027 36.3816 113.1 36.7154 113.1 37.0526C113.1 37.3898 113.027 37.7236 112.885 38.035C112.742 38.3465 112.534 38.6293 112.271 38.8674L89.6762 59.3741C89.1459 59.8554 88.4266 60.1259 87.6766 60.1259C86.9266 60.1259 86.2073 59.8554 85.677 59.3741C85.1467 58.8928 84.8487 58.24 84.8487 57.5593C84.8487 56.8786 85.1467 56.2258 85.677 55.7444L103.453 39.6159L36.839 39.6159C36.0899 39.6159 35.3715 39.3459 34.8419 38.8651C34.3122 38.3844 34.0146 37.7324 34.0146 37.0526Z" fill="#585656" fill-opacity="0.8"/>
</g>
</g>
</svg>
