<svg width="36" height="36" viewBox="0 0 36 36" fill="none" xmlns="http://www.w3.org/2000/svg">
<g id="Group">
<path id="Vector" fill-rule="evenodd" clip-rule="evenodd" d="M0.119141 3.55862C0.119141 2.7831 0.427214 2.03935 0.975587 1.49097C1.52396 0.942598 2.26771 0.634525 3.04323 0.634525H32.1919C32.5762 0.633898 32.9569 0.70908 33.3121 0.855768C33.6673 1.00246 33.9901 1.21777 34.262 1.48938C34.5339 1.76099 34.7496 2.08356 34.8967 2.43863C35.0438 2.7937 35.1193 3.17429 35.1191 3.55862V32.7072C35.1196 33.0916 35.0442 33.4724 34.8973 33.8276C34.7505 34.1828 34.535 34.5056 34.2633 34.7775C33.9915 35.0494 33.6688 35.265 33.3137 35.4121C32.9585 35.5591 32.5779 35.6347 32.1935 35.6345H3.04323C2.6591 35.6345 2.27873 35.5588 1.92386 35.4118C1.56899 35.2647 1.24657 35.0492 0.975025 34.7775C0.703477 34.5058 0.488123 34.1833 0.341267 33.8283C0.194412 33.4734 0.118932 33.093 0.119141 32.7088V3.55862ZM13.9728 13.9791H18.7121V16.3591C19.3962 14.9909 21.1462 13.7595 23.776 13.7595C28.8175 13.7595 30.0123 16.4848 30.0123 21.485V30.7472H24.9103V22.6241C24.9103 19.7763 24.2262 18.1695 22.4889 18.1695C20.0787 18.1695 19.0764 19.902 19.0764 22.6241V30.7472H13.9728V13.9791ZM5.22278 30.5293H10.3264V13.7595H5.22278V30.5277V30.5293ZM11.0566 8.28998C11.0663 8.72696 10.9885 9.16146 10.8279 9.56798C10.6674 9.9745 10.4272 10.3449 10.1216 10.6573C9.81591 10.9698 9.45093 11.218 9.04805 11.3875C8.64516 11.557 8.21248 11.6443 7.77539 11.6443C7.33831 11.6443 6.90562 11.557 6.50274 11.3875C6.09985 11.218 5.73487 10.9698 5.42923 10.6573C5.12358 10.3449 4.88343 9.9745 4.72285 9.56798C4.56228 9.16146 4.48452 8.72696 4.49414 8.28998C4.51303 7.43225 4.86703 6.61601 5.48032 6.01607C6.09362 5.41613 6.91745 5.08019 7.77539 5.08019C8.63333 5.08019 9.45716 5.41613 10.0705 6.01607C10.6838 6.61601 11.0378 7.43225 11.0566 8.28998V8.28998Z" fill="#545454"/>
</g>
</svg>
