<svg width="36" height="49" viewBox="0 0 36 49" fill="none" xmlns="http://www.w3.org/2000/svg">
<g id="Social profile">
<g id="Group">
<path id="Vector" fill-rule="evenodd" clip-rule="evenodd" d="M18.3359 0.405762C8.66719 0.405762 0.835938 8.23701 0.835938 17.9058C0.835938 25.6495 5.84531 32.1901 12.8016 34.5089C13.6766 34.662 14.0047 34.137 14.0047 33.6776C14.0047 33.262 13.9828 31.8839 13.9828 30.4183C9.58594 31.2276 8.44844 29.3464 8.09844 28.362C7.90156 27.8589 7.04844 26.3058 6.30469 25.8901C5.69219 25.562 4.81719 24.7526 6.28281 24.7308C7.66094 24.7089 8.64531 25.9995 8.97344 26.5245C10.5484 29.1714 13.0641 28.4276 14.0703 27.9683C14.2234 26.8308 14.6828 26.0651 15.1859 25.6276C11.2922 25.1901 7.22344 23.6808 7.22344 16.987C7.22344 15.0839 7.90156 13.5089 9.01719 12.2839C8.84219 11.8464 8.22969 10.0526 9.19219 7.64639C9.19219 7.64639 10.6578 7.18701 14.0047 9.44014C15.4047 9.04639 16.8922 8.84951 18.3797 8.84951C19.8672 8.84951 21.3547 9.04639 22.7547 9.44014C26.1016 7.16514 27.5672 7.64639 27.5672 7.64639C28.5297 10.0526 27.9172 11.8464 27.7422 12.2839C28.8578 13.5089 29.5359 15.062 29.5359 16.987C29.5359 23.7026 25.4453 25.1901 21.5516 25.6276C22.1859 26.1745 22.7328 27.2245 22.7328 28.8651C22.7328 31.2058 22.7109 33.087 22.7109 33.6776C22.7109 34.137 23.0391 34.6839 23.9141 34.5089C27.3881 33.336 30.4068 31.1032 32.5454 28.1248C34.6841 25.1465 35.8349 21.5724 35.8359 17.9058C35.8359 8.23701 28.0047 0.405762 18.3359 0.405762Z" fill="#545454"/>
</g>
</g>
</svg>
