<svg width="36" height="36" viewBox="0 0 36 36" fill="none" xmlns="http://www.w3.org/2000/svg">
<path id="Vector" d="M17.8359 0.13446C8.17083 0.13446 0.335938 7.96936 0.335938 17.6345C0.335938 27.2996 8.17083 35.1345 17.8359 35.1345C27.501 35.1345 35.3359 27.2996 35.3359 17.6345C35.3359 7.96936 27.501 0.13446 17.8359 0.13446ZM24.9544 14.4699C24.9617 14.6194 24.9635 14.7688 24.9635 14.9147C24.9635 19.472 21.4982 24.7238 15.1581 24.7238C13.2847 24.7269 11.4502 24.1888 9.87526 23.1743C10.1432 23.2071 10.4185 23.2199 10.6974 23.2199C12.3125 23.2199 13.7982 22.6712 14.9776 21.7451C14.2589 21.731 13.5624 21.493 12.9854 21.0643C12.4083 20.6356 11.9794 20.0375 11.7583 19.3535C12.2745 19.4516 12.8062 19.431 13.3133 19.2933C12.5332 19.1356 11.8316 18.7129 11.3276 18.0969C10.8236 17.4809 10.5481 16.7095 10.5479 15.9136V15.8717C11.0128 16.1287 11.5451 16.2855 12.1102 16.3037C11.3788 15.8169 10.8611 15.069 10.6628 14.2131C10.4646 13.3572 10.6009 12.4578 11.0437 11.699C11.9096 12.7636 12.9893 13.6345 14.213 14.2553C15.4368 14.8762 16.7772 15.2331 18.1477 15.3029C17.9734 14.5634 18.0484 13.787 18.361 13.0945C18.6735 12.402 19.2061 11.8321 19.8759 11.4735C20.5457 11.1149 21.3153 10.9876 22.0649 11.1115C22.8145 11.2353 23.5022 11.6034 24.0211 12.1584C24.7925 12.0058 25.5323 11.7228 26.2086 11.3217C25.9515 12.1204 25.4132 12.7986 24.6938 13.2303C25.3771 13.148 26.0443 12.9643 26.6734 12.6852C26.2113 13.3778 25.6292 13.9821 24.9544 14.4699V14.4699Z" fill="#545454"/>
</svg>
