<svg width="65" height="64" viewBox="0 0 65 64" fill="none" xmlns="http://www.w3.org/2000/svg">
<path fill-rule="evenodd" clip-rule="evenodd" d="M32.5001 4C33.0305 4 33.5392 4.21071 33.9143 4.58579C34.2894 4.96086 34.5001 5.46957 34.5001 6V53.172L47.0841 40.584C47.4596 40.2085 47.969 39.9975 48.5001 39.9975C49.0312 39.9975 49.5405 40.2085 49.9161 40.584C50.2916 40.9595 50.5026 41.4689 50.5026 42C50.5026 42.5311 50.2916 43.0405 49.9161 43.416L33.9161 59.416C33.7303 59.6023 33.5096 59.75 33.2666 59.8509C33.0236 59.9517 32.7632 60.0036 32.5001 60.0036C32.237 60.0036 31.9765 59.9517 31.7336 59.8509C31.4906 59.75 31.2699 59.6023 31.0841 59.416L15.0841 43.416C14.7085 43.0405 14.4976 42.5311 14.4976 42C14.4976 41.4689 14.7085 40.9595 15.0841 40.584C15.4596 40.2085 15.969 39.9975 16.5001 39.9975C17.0312 39.9975 17.5405 40.2085 17.9161 40.584L30.5001 53.172V6C30.5001 5.46957 30.7108 4.96086 31.0859 4.58579C31.4609 4.21071 31.9697 4 32.5001 4Z" fill="#585656" fill-opacity="0.8"/>
</svg>
